<?xml version="1.0" standalone="no"?>
<!DOCTYPE svg PUBLIC "-//W3C//DTD SVG 20010904//EN"
 "http://www.w3.org/TR/2001/REC-SVG-20010904/DTD/svg10.dtd">
<svg version="1.0" xmlns="http://www.w3.org/2000/svg"
 width="1000.000000pt" height="1000.000000pt" viewBox="0 0 1000.000000 1000.000000"
 preserveAspectRatio="xMidYMid meet">
<metadata>
Created by potrace 1.14, written by Peter Selinger 2001-2017
</metadata>
<g transform="translate(0.000000,1000.000000) scale(0.100000,-0.100000)"
fill="#000000" stroke="none">
<path d="M6060 9901 c-308 -67 -543 -278 -638 -571 -44 -135 -52 -222 -52
-585 0 -310 -2 -349 -20 -421 -46 -178 -167 -362 -407 -619 -280 -299 -848
-863 -953 -946 -258 -204 -482 -317 -730 -370 -180 -38 -506 -25 -741 30 -226
53 -565 76 -765 52 -455 -54 -850 -259 -1115 -579 -123 -148 -148 -222 -114
-338 l16 -59 940 -940 939 -941 -1141 -1564 c-628 -861 -1150 -1583 -1160
-1605 -30 -63 -26 -160 9 -226 62 -118 211 -173 327 -120 44 20 2429 1753
2483 1804 105 99 108 269 7 370 -74 74 -200 99 -291 58 -22 -10 -341 -256
-708 -545 -368 -290 -669 -526 -671 -524 -1 2 382 505 852 1118 471 613 864
1133 874 1155 26 55 25 156 -2 215 -15 35 -226 252 -945 971 l-926 926 38 33
c91 80 244 164 382 210 219 73 536 88 742 35 77 -20 404 -63 582 -77 243 -19
509 15 737 93 210 73 489 233 700 403 144 115 353 311 512 479 79 83 248 258
376 389 127 130 268 284 314 340 203 252 318 480 364 721 13 65 16 153 16 427
-1 365 6 435 48 517 29 58 88 111 161 147 58 28 74 31 155 31 167 -1 19 132
1632 -1478 1624 -1622 1488 -1472 1488 -1647 0 -82 -4 -103 -27 -152 -52 -111
-133 -173 -260 -199 -33 -7 -181 -11 -393 -10 -381 2 -445 -5 -621 -64 -188
-63 -389 -177 -584 -334 -95 -76 -433 -396 -735 -696 -538 -533 -797 -945
-895 -1419 -27 -130 -43 -342 -35 -456 15 -225 58 -540 92 -676 26 -109 24
-416 -5 -551 -45 -209 -130 -388 -256 -538 l-25 -30 -833 832 c-614 613 -844
836 -873 848 -50 21 -158 23 -206 3 -134 -57 -197 -222 -135 -353 34 -71 1858
-1894 1926 -1924 63 -29 150 -28 215 3 69 32 184 125 285 232 295 311 450 724
450 1200 0 178 -12 295 -51 489 -40 201 -72 505 -64 615 29 404 193 727 587
1157 133 144 739 734 856 832 163 136 303 221 452 273 l95 33 380 1 c354 1
387 2 485 23 293 62 487 211 616 471 64 130 79 204 79 390 0 143 -3 176 -23
245 -33 112 -95 232 -168 322 -34 43 -696 711 -1471 1484 -1479 1477 -1466
1464 -1615 1526 -121 50 -195 65 -338 69 -105 3 -154 0 -220 -15z"/>
</g>
</svg>
